<?xml version="1.0" encoding="utf-8"?>
<!-- Generator: Adobe Illustrator 22.0.1, SVG Export Plug-In . SVG Version: 6.00 Build 0)  -->
<svg version="1.1" id="Слой_1" xmlns="http://www.w3.org/2000/svg" xmlns:xlink="http://www.w3.org/1999/xlink" x="0px" y="0px"
	 viewBox="0 0 22 22" style="enable-background:new 0 0 22 22;" xml:space="preserve">
<style type="text/css">
	.st0{fill:#FFFFFF;}
</style>
<path class="st0" d="M18.8,0H3.2C1.5,0,0,1.5,0,3.2c0,0,0,0,0,0v15.5C0,20.5,1.5,22,3.2,22c0,0,0,0,0,0h15.5c1.8,0,3.2-1.5,3.2-3.2
	V3.2C22,1.5,20.5,0,18.8,0z M10.4,8l3.8,2.2c0.5,0.3,0.6,0.8,0.3,1.2c-0.1,0.1-0.2,0.2-0.3,0.2L10,14.1c-0.5,0.3-1.1,0.2-1.4-0.2
	c-0.1-0.1-0.2-0.3-0.2-0.5l0-5c0-0.5,0.4-0.9,1-0.9C9.6,7.6,10.2,7.9,10.4,8z"/>
</svg>
