<?xml version="1.0" encoding="utf-8"?>
<!-- Generator: Adobe Illustrator 22.0.1, SVG Export Plug-In . SVG Version: 6.00 Build 0)  -->
<svg version="1.1" id="Слой_1" xmlns="http://www.w3.org/2000/svg" xmlns:xlink="http://www.w3.org/1999/xlink" x="0px" y="0px"
	 viewBox="0 0 22 22" style="enable-background:new 0 0 22 22;" xml:space="preserve">
<style type="text/css">
	.st0{fill:#FFFFFF;}
</style>
<path class="st0" d="M18.8,0H3.2C1.5,0,0,1.5,0,3.2l0,0v15.5C0,20.5,1.5,22,3.2,22l0,0h15.5c1.8,0,3.2-1.5,3.2-3.2V3.2
	C22,1.5,20.5,0,18.8,0z M12,13.9l-3.8-2.2c-0.5-0.3-0.6-0.8-0.3-1.2c0.1-0.1,0.2-0.2,0.3-0.2l4.2-2.5c0.5-0.3,1.1-0.2,1.4,0.2
	C13.9,8.1,14,8.3,14,8.5v5c0,0.5-0.4,0.9-1,0.9C12.8,14.3,12.2,14,12,13.9z"/>
</svg>
